<svg version="1.1" xmlns="http://www.w3.org/2000/svg" viewBox="0 0 1549.1869066026477 460.98482598198785" width="1549.1869066026477" height="460.98482598198785" filter="invert(93%) hue-rotate(180deg)">
  <!-- svg-source:excalidraw -->
  
  <defs>
    <style class="style-fonts">
      @font-face {
        font-family: "Virgil";
        src: url("https://excalidraw.com/Virgil.woff2");
      }
      @font-face {
        font-family: "Cascadia";
        src: url("https://excalidraw.com/Cascadia.woff2");
      }
    </style>
  </defs>
  <rect x="0" y="0" width="1549.1869066026477" height="460.98482598198785" fill="#f1f3f5"></rect><g stroke-linecap="round"><g transform="translate(195.6032805301763 190.11676060552054) rotate(0 152.18881367829903 13.806825697970567)"><path d="M0.23 -0.79 C92.3 12.72, 181 22.25, 304.15 28.41" stroke="#000000" stroke-width="4.5" fill="none" stroke-dasharray="1.5 10"></path></g><g transform="translate(195.6032805301763 190.11676060552054) rotate(0 152.18881367829903 13.806825697970567)"><path d="M275.68 35.78 C286.4 35.09, 293.14 34.02, 307.06 28.41" stroke="#000000" stroke-width="4.5" fill="none" stroke-dasharray="1.5 8"></path></g><g transform="translate(195.6032805301763 190.11676060552054) rotate(0 152.18881367829903 13.806825697970567)"><path d="M276.97 15.3 C287.67 20.69, 294.02 25.73, 307.06 28.41" stroke="#000000" stroke-width="4.5" fill="none" stroke-dasharray="1.5 8"></path></g></g><mask></mask><g transform="translate(564.5337575511555 10) rotate(0 203.88933731600207 25.78282165527345)"><text x="0" y="0" font-family="Virgil, Segoe UI Emoji" font-size="41.25251464843754px" fill="#000000" text-anchor="start" style="white-space: pre;" direction="ltr" dominant-baseline="text-before-edge">System Architecture</text></g><g stroke-linecap="round" transform="translate(502.29807196723107 139.1666768391928) rotate(0 64 138)"><path d="M-0.57 3.58 C29.26 2.01, 55.4 0.74, 126.9 2.34 M129.01 -2.64 C129.49 88.88, 134.77 173.18, 126.03 278.36 M125.34 272.82 C79.43 273.91, 34.12 274.22, 1.37 274.28 M-1.89 278.52 C-0.07 171.83, -0.7 64.61, 2.06 -1.35" stroke="#000000" stroke-width="2.5" fill="none" stroke-dasharray="8 10"></path></g><g transform="translate(524.1881095038522 239.6666768391928) rotate(0 42.109962463378906 37.5)"><text x="42.109962463378906" y="0" font-family="Virgil, Segoe UI Emoji" font-size="20px" fill="#000000" text-anchor="middle" style="white-space: pre;" direction="ltr" dominant-baseline="text-before-edge">API</text><text x="42.109962463378906" y="25" font-family="Virgil, Segoe UI Emoji" font-size="20px" fill="#000000" text-anchor="middle" style="white-space: pre;" direction="ltr" dominant-baseline="text-before-edge"></text><text x="42.109962463378906" y="50" font-family="Virgil, Segoe UI Emoji" font-size="20px" fill="#000000" text-anchor="middle" style="white-space: pre;" direction="ltr" dominant-baseline="text-before-edge">FastAPI</text></g><g stroke-linecap="round"><g transform="translate(639.0576372884248 268.2577795912682) rotate(0 47.50211042451201 0.6691711494007393)"><path d="M3.79 -2.21 C31.44 1.06, 67.5 4.24, 91.22 3.42" stroke="#000000" stroke-width="2.5" fill="none" stroke-dasharray="8 10"></path></g><g transform="translate(639.0576372884248 268.2577795912682) rotate(0 47.50211042451201 0.6691711494007393)"><path d="M66.71 11.19 C72.16 9.84, 85.73 7.19, 91.5 0.61" stroke="#000000" stroke-width="2.5" fill="none"></path></g><g transform="translate(639.0576372884248 268.2577795912682) rotate(0 47.50211042451201 0.6691711494007393)"><path d="M66.92 -9.33 C71.93 -3.31, 85.43 1.41, 91.5 0.61" stroke="#000000" stroke-width="2.5" fill="none"></path></g></g><mask></mask><g stroke-linecap="round" transform="translate(742.8636566704528 115.5302971733941) rotate(0 16.3636474609375 167.72726440429688)"><path d="M2.67 2.56 C13.98 2.24, 26.77 -3.07, 34.83 -0.9 M33.89 -0.71 C34.1 125.77, 37.14 252.9, 33.86 335.65 M32.88 338.67 C21.08 336.76, 14.63 338.95, -1.83 332.76 M-1 336.37 C1.56 209.47, 1.54 84.23, -1.41 0.75" stroke="#000000" stroke-width="2.5" fill="none" stroke-dasharray="8 10"></path></g><g transform="translate(613.7895352918604 270.757561577691) rotate(271.1726297103153 146.30982971191406 12.5)"><text x="0" y="0" font-family="Virgil, Segoe UI Emoji" font-size="20px" fill="#000000" text-anchor="start" style="white-space: pre;" direction="ltr" dominant-baseline="text-before-edge">Json schema based validation</text></g><g stroke-linecap="round"><g transform="translate(788.8314096673255 274.0665723895238) rotate(0 38.31776027428157 -0.7929625783066934)"><path d="M2.3 2.52 C14.27 2.02, 62.41 -2.24, 74.34 -4.11" stroke="#000000" stroke-width="2.5" fill="none" stroke-dasharray="8 10"></path></g><g transform="translate(788.8314096673255 274.0665723895238) rotate(0 38.31776027428157 -0.7929625783066934)"><path d="M51.13 12.72 C61.02 6.35, 64.89 -0.38, 75.91 -2" stroke="#000000" stroke-width="2.5" fill="none"></path></g><g transform="translate(788.8314096673255 274.0665723895238) rotate(0 38.31776027428157 -0.7929625783066934)"><path d="M48.75 -7.66 C59.42 -6.16, 64.2 -4.96, 75.91 -2" stroke="#000000" stroke-width="2.5" fill="none"></path></g></g><mask></mask><g stroke-linecap="round" transform="translate(867.1668395996096 161.99495103624122) rotate(0 141.81814575195312 99.54544067382812)"><path d="M-0.29 1.75 C70.22 0.7, 135.77 2.27, 283.4 2.36 M282.04 -1.05 C281.91 56.1, 280.47 109.46, 282.26 196.2 M284.21 198.57 C200.74 197.02, 117.27 196.99, 2.12 196.69 M-3.61 202.48 C1.29 146.28, 2.58 90.42, -2.15 -1.4" stroke="#000000" stroke-width="2.5" fill="none" stroke-dasharray="8 10"></path></g><g transform="translate(964.6414964463977 234.92423163519965) rotate(0 45.27995300292969 12.5)"><text x="0" y="0" font-family="Virgil, Segoe UI Emoji" font-size="20px" fill="#000000" text-anchor="start" style="white-space: pre;" direction="ltr" dominant-baseline="text-before-edge">Scheduler</text></g><g transform="translate(888.2777269151477 293.4039741793696) rotate(0 115.39025115966797 10.078320256235354)"><text x="0" y="0" font-family="Virgil, Segoe UI Emoji" font-size="16.125312409976566px" fill="#000000" text-anchor="start" style="white-space: pre;" direction="ltr" dominant-baseline="text-before-edge">Celery beat + Celery workers</text></g><g stroke-linecap="round" transform="translate(1290.0959642198352 151.28787909613715) rotate(0 124.54547119140625 105.90908813476562)"><path d="M0.73 2.92 C61.07 3.1, 122.13 0.77, 246.22 -0.33 M252.26 2.98 C250.3 84.63, 244.53 165.59, 250.48 213.67 M245.86 212.41 C148.16 217.07, 49.77 213.43, -1 210.09 M1.61 210.44 C-0.05 148.45, 4 81.06, 1.06 0.22" stroke="#000000" stroke-width="2.5" fill="none" stroke-dasharray="8 10"></path></g><g stroke-linecap="round"><g transform="translate(1156.2575988769534 234.3511668516368) rotate(0 68.24578387869724 4.383244011247331)"><path d="M3.52 3.11 C37.25 3.18, 76.52 2.62, 132.97 5.66" stroke="#000000" stroke-width="4.5" fill="none" stroke-dasharray="1.5 10"></path></g><g transform="translate(1156.2575988769534 234.3511668516368) rotate(0 68.24578387869724 4.383244011247331)"><path d="M107.91 17.89 C113.09 14.17, 123.69 9.16, 134.84 4.53" stroke="#000000" stroke-width="4.5" fill="none" stroke-dasharray="1.5 8"></path></g><g transform="translate(1156.2575988769534 234.3511668516368) rotate(0 68.24578387869724 4.383244011247331)"><path d="M108.74 -2.62 C113.54 -0.6, 123.9 0.13, 134.84 4.53" stroke="#000000" stroke-width="4.5" fill="none" stroke-dasharray="1.5 8"></path></g></g><mask></mask><g stroke-linecap="round"><g transform="translate(1288.2777269151477 306.7102321507673) rotate(0 -63.95124061240085 0.3595464692869115)"><path d="M3.65 -2.65 C-29.68 1.74, -61.48 -1.25, -131.56 3.36" stroke="#000000" stroke-width="4.5" fill="none" stroke-dasharray="1.5 10"></path></g><g transform="translate(1288.2777269151477 306.7102321507673) rotate(0 -63.95124061240085 0.3595464692869115)"><path d="M-100.22 -10.84 C-109.91 -4.33, -118.02 -5.77, -130.18 2.06" stroke="#000000" stroke-width="4.5" fill="none" stroke-dasharray="1.5 8"></path></g><g transform="translate(1288.2777269151477 306.7102321507673) rotate(0 -63.95124061240085 0.3595464692869115)"><path d="M-99.27 9.66 C-109.07 11.56, -117.4 5.5, -130.18 2.06" stroke="#000000" stroke-width="4.5" fill="none" stroke-dasharray="1.5 8"></path></g></g><mask></mask><g transform="translate(1336.1614045074252 234.01517401801215) rotate(0 76.36180877685547 19.318176269531246)"><text x="0" y="0" font-family="Virgil, Segoe UI Emoji" font-size="30.909082031249994px" fill="#000000" text-anchor="start" style="white-space: pre;" direction="ltr" dominant-baseline="text-before-edge">Database</text></g><g transform="translate(1378.2777269151477 307.6514960394965) rotate(0 43.489967346191406 12.5)"><text x="0" y="0" font-family="Virgil, Segoe UI Emoji" font-size="20px" fill="#000000" text-anchor="start" style="white-space: pre;" direction="ltr" dominant-baseline="text-before-edge">MongoDB</text></g><g stroke-linecap="round" transform="translate(10 131.8888990614144) rotate(0 88.88888888888889 150)"><path d="M1.13 2.85 C50.2 -3.57, 101.22 3.06, 177.09 -2.73 M176.96 -1.46 C176.16 112.1, 174.66 217.63, 180.12 302.65 M174.41 300.8 C124.95 299.1, 69.63 295.77, 0.54 298.39 M0.81 299.67 C0.61 227.52, 1.63 160.4, -0.89 1.74" stroke="#000000" stroke-width="2.5" fill="none" stroke-dasharray="8 10"></path></g><g transform="translate(27.676798502604186 250.07072957356712) rotate(0 72.29993438720703 12.5)"><text x="0" y="0" font-family="Virgil, Segoe UI Emoji" font-size="20px" fill="#000000" text-anchor="start" style="white-space: pre;" direction="ltr" dominant-baseline="text-before-edge">HTTP CLIENT</text></g><g stroke-linecap="round" transform="translate(239.7322964138456 143.94441392686628) rotate(0 86 54)"><path d="M-1 3.46 L169.01 -1.86 L170.16 108.18 L3.98 109.73" stroke="none" stroke-width="0" fill="#ced4da"></path><path d="M-3.17 -0.7 C57.87 3.44, 110.22 6.17, 175.6 -2.76 M174.66 0.56 C173.32 46.61, 174.48 83.57, 171.85 110.35 M170.99 106.55 C119.15 107.83, 63.06 109.1, 0.6 109.19 M-0.53 109.23 C-0.44 75.45, 3.41 46.64, 3.8 1.82" stroke="#000000" stroke-width="4.5" fill="none" stroke-dasharray="1.5 10"></path></g><g transform="translate(251.49236721462685 172.94441392686628) rotate(0 74.23992919921875 25)"><text x="74.23992919921875" y="0" font-family="Virgil, Segoe UI Emoji" font-size="20px" fill="#000000" text-anchor="middle" style="white-space: pre;" direction="ltr" dominant-baseline="text-before-edge">YAML Scraping </text><text x="74.23992919921875" y="25" font-family="Virgil, Segoe UI Emoji" font-size="20px" fill="#000000" text-anchor="middle" style="white-space: pre;" direction="ltr" dominant-baseline="text-before-edge">plan / workflow</text></g><g stroke-linecap="round"><g transform="translate(194.84846327039932 363.8993740642435) rotate(0 148.81350967711253 -3.5088729894525628)"><path d="M0.03 2.88 C61.89 0.96, 120.45 -0.57, 297.59 -9.9" stroke="#000000" stroke-width="4.5" fill="none" stroke-dasharray="1.5 10"></path></g><g transform="translate(194.84846327039932 363.8993740642435) rotate(0 148.81350967711253 -3.5088729894525628)"><path d="M27.87 -4.49 C22.75 -4.33, 13.31 -2.06, -3.25 -0.61" stroke="#000000" stroke-width="4.5" fill="none" stroke-dasharray="1.5 8"></path></g><g transform="translate(194.84846327039932 363.8993740642435) rotate(0 148.81350967711253 -3.5088729894525628)"><path d="M28.64 16.01 C23.55 11.98, 13.95 10.06, -3.25 -0.61" stroke="#000000" stroke-width="4.5" fill="none" stroke-dasharray="1.5 8"></path></g></g><mask></mask><g stroke-linecap="round" transform="translate(270.9495103624131 331.4217317369243) rotate(0 74 36)"><path d="M1.6 -0.56 L149.37 -2.21 L145.58 72.4 L-1.63 74.77" stroke="none" stroke-width="0" fill="#ced4da"></path><path d="M-2.69 -0.37 C54.27 -0.02, 104.56 -1.35, 147.04 0.05 M144.95 1.88 C144.97 25.19, 145.42 57.67, 150.63 71.6 M149 74.33 C94.65 67.45, 43.18 66.64, 0.46 73.36 M-0.55 71.99 C-3.92 50.49, -2.43 33.35, 3.31 -0.34" stroke="#000000" stroke-width="4.5" fill="none" stroke-dasharray="1.5 10"></path></g><g transform="translate(301.63955858018653 354.9217317369243) rotate(0 43.30995178222656 12.5)"><text x="43.30995178222656" y="0" font-family="Virgil, Segoe UI Emoji" font-size="20px" fill="#000000" text-anchor="middle" style="white-space: pre;" direction="ltr" dominant-baseline="text-before-edge">Responce</text></g></svg>